<svg xmlns="http://www.w3.org/2000/svg" viewBox="0 0 400.77 117.06"><defs><style>.cls-1{fill:#e6bf74;}.cls-2{fill:#fff;}</style></defs><g id="Layer_2" data-name="Layer 2"><g id="Layer_1-2" data-name="Layer 1"><path class="cls-1" d="M58.53,117.06A58.53,58.53,0,0,1,17.14,17.14,58.53,58.53,0,0,1,99.92,99.92,58.19,58.19,0,0,1,58.53,117.06Zm0-111.75A53.22,53.22,0,0,0,20.9,96.16,53.22,53.22,0,1,0,96.16,20.9,52.88,52.88,0,0,0,58.53,5.31Z"/><path class="cls-1" d="M58.49,35.51c-.17-.11-.35-.21-.53-.31-1.58-1-3.16-2-4.75-3-.36-.21-.36-.4-.13-.68q2.51-2.94,5-5.89c.34-.41.57-.37.91,0,1.6,1.94,3.23,3.86,4.86,5.76.32.38.26.57-.14.82-1.61,1-3.2,2-4.8,3A4.1,4.1,0,0,1,58.49,35.51Z"/><path class="cls-1" d="M91.06,57.89c-1.15-4.23-2.57-8.4-4-12.56A51.44,51.44,0,0,1,84,29.92c0-.75-.12-.87-.86-.75-2.55.41-5.12.72-7.62,1.33A53.76,53.76,0,0,0,69,32.68a39.31,39.31,0,0,0-10,5.76.78.78,0,0,1-1.14,0A42.62,42.62,0,0,0,51,34.05a41.5,41.5,0,0,0-10.54-3.78c-2.16-.45-4.35-.71-6.53-1.05-.81-.13-.94,0-1,.84a41.11,41.11,0,0,1-.34,4.71c1.79.38,4.41.95,6.75,1.56h0c.6.15,1.18.31,1.77.48.89.25,1.67.5,2.28.73a37.23,37.23,0,0,1,7.79,3.81A31.12,31.12,0,0,1,63.66,55.78a.71.71,0,0,0,.75.5H69.9a2.37,2.37,0,0,0,.49-.1,3.3,3.3,0,0,0-.1-.48c-.74-1.8-1.39-3.65-2.25-5.4a29.07,29.07,0,0,0-4.48-6.52c-.35-.39-.37-.64.1-1a38.69,38.69,0,0,1,14-6.43c.52-.13.71,0,.79.53a59.23,59.23,0,0,0,2.36,9.37c1.27,4,2.64,8,3.84,12.07A32.81,32.81,0,0,1,85.9,71.16,19.72,19.72,0,0,1,82.44,81a9.82,9.82,0,0,1-9.18,4.25,17.63,17.63,0,0,1-6.43-1.89c-1.07-.54-2.11-1.15-3.25-1.78.29-.34.45-.55.64-.75a27.55,27.55,0,0,0,4.92-7.25,24.39,24.39,0,0,0,2-13.88c-.12-.86-.14-.86-1-.86H55.59c-.33,0-.59,0-.68.45a16.9,16.9,0,0,0-.43,5c.07.89.09.89,1,.89h8.75c.76,0,.81.07.71.83a1.84,1.84,0,0,1-.05.25A20.57,20.57,0,0,1,59,77.06c-.42.42-.66.4-1.06,0a20.51,20.51,0,0,1-5.69-10.14,19,19,0,0,1,.91-10.74A26.16,26.16,0,0,1,56.48,50a.65.65,0,0,0-.08-1c-1.23-1.12-2.43-2.27-3.64-3.41-.39-.37-.62-.28-.92.14a35.93,35.93,0,0,0-3.79,6.37,27.07,27.07,0,0,0-2.46,10.57,24.62,24.62,0,0,0,4.62,15,32.65,32.65,0,0,0,8.13,8,30.36,30.36,0,0,0,12.94,5.76A16.11,16.11,0,0,0,84.9,87.71a21.16,21.16,0,0,0,6.48-11.23A36,36,0,0,0,91.06,57.89Z"/><path class="cls-1" d="M51.54,83.14a.82.82,0,0,0-.69-.08c-1.78.63-3.51,1.45-5.33,1.92a10.13,10.13,0,0,1-11.29-4.43,21.6,21.6,0,0,1-3.27-11,39.66,39.66,0,0,1,2.25-14.23c1-3.17,2.19-6.29,3.13-9.48.72-2.48,1.29-5,1.88-7.52a52.72,52.72,0,0,1-5.91-1.52c-.16.82-.36,1.64-.6,2.44-1.08,3.69-2.26,7.36-3.47,11A67,67,0,0,0,24.9,63.48,34.23,34.23,0,0,0,26.07,78a21.12,21.12,0,0,0,4.75,8.47,16.08,16.08,0,0,0,14.44,5A26.68,26.68,0,0,0,55.07,88c.37-.21.73-.44,1.13-.69A1.83,1.83,0,0,0,56,87C54.49,85.71,53,84.41,51.54,83.14Z"/><path class="cls-2" d="M146.19,59h6.17c.8,0,1.53,0,2.21-.09s1.25-.12,1.72-.2a5.9,5.9,0,0,0,1.39-.39l1-.42a3.06,3.06,0,0,0,.82-.58l.62-.55a7.71,7.71,0,0,0,.57-.64,6.91,6.91,0,0,0,.48-.61.53.53,0,0,1,.45-.18.47.47,0,0,1,.41.22.42.42,0,0,1,.07.44l-1.85,4.63-20.6,0a.55.55,0,0,1-.48-.22.42.42,0,0,1-.05-.49,8.57,8.57,0,0,0,.8-4V35a8.88,8.88,0,0,0-.8-4.06.38.38,0,0,1,.05-.46.53.53,0,0,1,.48-.25h6.79a.52.52,0,0,1,.47.25.48.48,0,0,1,.06.46,8.89,8.89,0,0,0-.79,4.06Z"/><path class="cls-2" d="M182.84,30.2h6.57a.52.52,0,0,1,.51.33.42.42,0,0,1-.15.56,5.59,5.59,0,0,0-2.65,4.58V51a9,9,0,0,1-1.85,6.09,9.59,9.59,0,0,1-6.09,3.31,15.15,15.15,0,0,1-3.66.17q-7.46,0-10.54-4.45A11,11,0,0,1,163.3,50V35a8.89,8.89,0,0,0-.79-4.06.38.38,0,0,1,0-.46.58.58,0,0,1,.49-.24h6.79a.5.5,0,0,1,.46.24.47.47,0,0,1,.07.46,8.89,8.89,0,0,0-.79,4.06v16.1q0,4.72,3,6.79a7.39,7.39,0,0,0,3,1.06,12.73,12.73,0,0,0,4.48-.71A8.12,8.12,0,0,0,183,56.62a7.12,7.12,0,0,0,1.5-2.11,8.55,8.55,0,0,0,.66-1.88,8.09,8.09,0,0,0,.11-1.21V35.67q0-2.46-2.78-4.58a.42.42,0,0,1-.16-.56A.54.54,0,0,1,182.84,30.2Z"/><path class="cls-2" d="M206.61,43.92,214.77,57c.3.41.53.72.71.93a12.53,12.53,0,0,0,1.76,1.76.42.42,0,0,1,.18.55.51.51,0,0,1-.53.33h-8.42a.58.58,0,0,1-.4-.17.42.42,0,0,1-.13-.4q.3-1.73-1.33-4.68l-4.05-6.44-6.8,8.43A1.94,1.94,0,0,0,196,59.8a.37.37,0,0,1,.05.51.59.59,0,0,1-.53.28h-5.12a.51.51,0,0,1-.55-.35.46.46,0,0,1,.24-.57,15.08,15.08,0,0,0,4-3l7.54-9.31-8.69-13.93c-.12-.15-.32-.4-.62-.75a10.25,10.25,0,0,0-1.72-1.59.41.41,0,0,1-.15-.55.56.56,0,0,1,.55-.33h8.43a.54.54,0,0,1,.44.22.43.43,0,0,1,.08.44,3.53,3.53,0,0,0-.17,1.15,3.74,3.74,0,0,0,.48,1.72l5.38,8.64,7.15-8.86A1.94,1.94,0,0,0,212.7,31a.37.37,0,0,1,0-.51.57.57,0,0,1,.53-.28h5.11a.49.49,0,0,1,.55.35.44.44,0,0,1-.24.57,20.44,20.44,0,0,0-5.25,4.37Z"/><path class="cls-2" d="M257.87,59.84a.45.45,0,0,1,0,.51.56.56,0,0,1-.51.24H246.66a14.38,14.38,0,0,1-10.6-4.43,14.69,14.69,0,0,1-4.39-10.74,14.7,14.7,0,0,1,4.39-10.74,14.34,14.34,0,0,1,10.6-4.43,14.67,14.67,0,0,1,8.34,2.6,8.49,8.49,0,0,1,.81.66A7.44,7.44,0,0,1,257,35a3,3,0,0,1,.55,1.87,3.09,3.09,0,0,1-1.35,2,3.82,3.82,0,0,1-2.53.7,3.64,3.64,0,0,1-2.34-1,3,3,0,0,1-1.06-2.07,2.76,2.76,0,0,1,.66-2.07l0,0c0-.06,0-.08.05-.08a.83.83,0,0,0,.22-.71.22.22,0,0,0,0-.13,2,2,0,0,0-.27-.58,2.72,2.72,0,0,0-2.38-1.05q-3.31,0-6.75,3.85A13.57,13.57,0,0,0,238.37,45a15.37,15.37,0,0,0,2.91,9.49,8.76,8.76,0,0,0,7.23,3.88,8.35,8.35,0,0,0,2.7-.44,39.92,39.92,0,0,0,.22-7.24h-1.81a5.59,5.59,0,0,0-4,1.59.54.54,0,0,1-.61.15.44.44,0,0,1-.36-.46V49.12h12.75a.57.57,0,0,1,.51.25.44.44,0,0,1,0,.5,4.09,4.09,0,0,0-.49,1.59v6.75A4.37,4.37,0,0,0,257.87,59.84Z"/><path class="cls-2" d="M282.83,58.48a6.66,6.66,0,0,0,.93,1.32.41.41,0,0,1,.06.51.53.53,0,0,1-.51.28h-6.92a.53.53,0,0,1-.51-.28.39.39,0,0,1,.07-.51,3.53,3.53,0,0,0,.62-1.26,3.32,3.32,0,0,0,.13-1.08,2.2,2.2,0,0,0-.13-.57c-.59-2.15-2.64-3.43-6.13-3.84-1.77-.29-2.92-.82-3.44-1.59v4.37a8.89,8.89,0,0,0,.79,4.06.49.49,0,0,1-.07.48.51.51,0,0,1-.46.22h-6.79a.59.59,0,0,1-.49-.22.4.4,0,0,1,0-.48,8.62,8.62,0,0,0,.79-4V35a8.89,8.89,0,0,0-.79-4.06.38.38,0,0,1,0-.46.58.58,0,0,1,.49-.24h12.79a12.75,12.75,0,0,1,7.92,2.49,7.62,7.62,0,0,1,3.37,6,7,7,0,0,1-1.88,4.94,10.84,10.84,0,0,1-5.13,3.22,11.09,11.09,0,0,1-1.41.26,43.1,43.1,0,0,1-5.08.31,4.57,4.57,0,0,0-2.51.93c-.77.79-.78,1.44-.05,1.94a4.11,4.11,0,0,0,2.34.75q7.41.18,10.37,4.32v0A7.36,7.36,0,0,1,282,57c.06.08.18.32.38.7A5.08,5.08,0,0,0,282.83,58.48ZM267,31.39V48.6a3.61,3.61,0,0,1,1-1.06,6.07,6.07,0,0,1,3.66-1.15h1a5.14,5.14,0,0,0,2.86-.71l.09-.08a6.07,6.07,0,0,0,2.07-2.74,9.81,9.81,0,0,0,.71-4,9.49,9.49,0,0,0-1.57-5.21,4.47,4.47,0,0,0-3.5-2.25Z"/><path class="cls-2" d="M317.5,59.8a.39.39,0,0,1,.06.51.52.52,0,0,1-.5.28h-8.47a.59.59,0,0,1-.49-.22.4.4,0,0,1,0-.48c.67-1.36.59-3.09-.27-5.21l-2.25-5.11a.87.87,0,0,1-.17.22,2.13,2.13,0,0,1-.58.44,2.62,2.62,0,0,1-.92.26,3.2,3.2,0,0,1-.62,0h-7.94a4.61,4.61,0,0,0-3,1.19,8.09,8.09,0,0,0-1.83,2.38l-1.32,3a2.74,2.74,0,0,0,.13,2.73.49.49,0,0,1,0,.51.51.51,0,0,1-.46.24h-3.71a.56.56,0,0,1-.55-.33.4.4,0,0,1,.2-.55,7,7,0,0,0,2.65-3.18L296.37,36a7.09,7.09,0,0,0,.49-5.07.45.45,0,0,1,.08-.46.6.6,0,0,1,.49-.2h7.1a.54.54,0,0,1,.44.2.45.45,0,0,1,.13.41,5.8,5.8,0,0,0,.62,3.75l8.73,20.12A21.49,21.49,0,0,0,317.5,59.8ZM295.4,49.43H302a3.17,3.17,0,0,0,2.2-.75,1.31,1.31,0,0,0,.35-1.41l-.7-1.54L299,34.53l-6.49,14.9-.66,1.41a3.38,3.38,0,0,1,.8-.7A5.09,5.09,0,0,1,295.4,49.43Z"/><path class="cls-2" d="M340.7,30.2h6.57a.54.54,0,0,1,.51.33.42.42,0,0,1-.16.56A5.62,5.62,0,0,0,345,35.67V55.74a10.36,10.36,0,0,0,.75,4.15.4.4,0,0,1,0,.48.58.58,0,0,1-.48.22h-7.59c-.38,0-.57-.17-.57-.53a4.89,4.89,0,0,0-1-3.3L322.48,36.6V55.17a5.61,5.61,0,0,0,2.6,4.54.42.42,0,0,1,.18.55.52.52,0,0,1-.53.33H318.2a.52.52,0,0,1-.53-.33.45.45,0,0,1,.13-.55,6.69,6.69,0,0,0,2.83-4.59V35.89a10.86,10.86,0,0,0-.88-4.89.47.47,0,0,1,0-.51.5.5,0,0,1,.46-.24h7.41a.51.51,0,0,1,.46.22.42.42,0,0,1,.07.44,5.46,5.46,0,0,0,.31,3.84l14.64,21.78V35.67c0-1.64-.95-3.17-2.78-4.58a.42.42,0,0,1-.15-.56A.52.52,0,0,1,340.7,30.2Z"/><path class="cls-2" d="M364.12,30.47a13.55,13.55,0,0,1,8.46,5.11A16,16,0,0,1,372.83,55a13.86,13.86,0,0,1-8.05,5.29,25.27,25.27,0,0,1-5.25.35h-9.75a.57.57,0,0,1-.48-.22.41.41,0,0,1-.05-.48,8.62,8.62,0,0,0,.8-4V35a8.88,8.88,0,0,0-.8-4.06.38.38,0,0,1,.05-.46.56.56,0,0,1,.48-.24h10c1.29,0,2.41,0,3.35.09Zm2.29,25.84a18.18,18.18,0,0,0,3.31-10.89,21.51,21.51,0,0,0-.51-4.68,19.51,19.51,0,0,0-1.57-4.43,9,9,0,0,0-3-3.48,8,8,0,0,0-4.44-1.44h-3.92v28.1h3.48a7.72,7.72,0,0,0,4-1.12A10.28,10.28,0,0,0,366.41,56.31Z"/><path class="cls-2" d="M399.71,55.56a.56.56,0,0,1,.48-.26c.39,0,.58.18.58.53l-1.9,4.76H378.32a.59.59,0,0,1-.49-.22.4.4,0,0,1,0-.48,8.62,8.62,0,0,0,.79-4V35a8.89,8.89,0,0,0-.79-4.06.38.38,0,0,1,0-.46.58.58,0,0,1,.49-.24l20.55-.05,1.9,4.81c0,.35-.19.53-.58.53a.56.56,0,0,1-.48-.26q-1.93-3.41-5.21-3.4h-9.65V45.77a3.39,3.39,0,0,1,.88-1,5,5,0,0,1,3-1h2.87a7.41,7.41,0,0,0,4.76-1.37.51.51,0,0,1,.51-.06.39.39,0,0,1,.29.37v3.66a.39.39,0,0,1-.29.38.49.49,0,0,1-.51-.07,6.93,6.93,0,0,0-4.19-1.32h-3.48q-3.18.22-3.88,3.7V59h9.65Q397.64,59,399.71,55.56Z"/><path class="cls-2" d="M174.89,75.17h5.62A3.2,3.2,0,0,1,184,78.32a3,3,0,0,1-1.81,2.81,3.57,3.57,0,0,1,2.3,3.21,3.47,3.47,0,0,1-3.75,3.46h-5.84Zm5.44,5.48a2.25,2.25,0,0,0,2.46-2.21,2.29,2.29,0,0,0-2.54-2.18h-4.19v4.39Zm.15,6.06a2.51,2.51,0,1,0,0-5h-4.42v5Z"/><path class="cls-2" d="M190,76.29V80.8h6.91v1.14H190v4.74h7.61V87.8h-8.8V75.17h8.8v1.12Z"/><path class="cls-2" d="M210.89,84.82h-7.24l-1.31,3h-1.28l5.57-12.63h1.28l5.57,12.63H212.2Zm-.51-1.14-3.11-7.06-3.11,7.06Z"/><path class="cls-2" d="M217.49,82.69V75.17h1.17v7.52a4,4,0,1,0,7.94,0V75.17h1.18v7.52a5.15,5.15,0,1,1-10.29,0Z"/><path class="cls-2" d="M236.4,76.29H232V75.17H242v1.12h-4.38V87.8H236.4Z"/><path class="cls-2" d="M250.05,82.65l-5.11-7.48h1.47l4.25,6.32,4.28-6.32h1.43l-5.09,7.48V87.8h-1.23Z"/><path class="cls-2" d="M282.32,86.68V87.8h-8.19V75.17h1.17V86.68Z"/><path class="cls-2" d="M285.74,81.48A6.46,6.46,0,1,1,292.21,88,6.59,6.59,0,0,1,285.74,81.48Zm11.73,0a5.27,5.27,0,1,0-5.26,5.44A5.41,5.41,0,0,0,297.47,81.48Z"/><path class="cls-2" d="M303,82.69V75.17h1.18v7.52a4,4,0,1,0,7.94,0V75.17h1.18v7.52a5.15,5.15,0,1,1-10.3,0Z"/><path class="cls-2" d="M318.47,75.17h1.18l8.08,10.72V75.17h1.18V87.8h-1.18l-8.08-10.72V87.8h-1.18Z"/><path class="cls-2" d="M339.73,81.27h5.06v4.84A7.35,7.35,0,0,1,339.9,88a6.54,6.54,0,0,1,0-13.07,7.3,7.3,0,0,1,4.89,1.91l-.81.83a6,6,0,0,0-4.08-1.64,5.44,5.44,0,0,0,0,10.87,6.12,6.12,0,0,0,3.71-1.29V82.4h-3.88Z"/><path class="cls-2" d="M350.63,76.29V80.8h6.91v1.14h-6.91v4.74h7.61V87.8h-8.8V75.17h8.8v1.12Z"/></g></g></svg>